<svg width="577" height="645" viewBox="0 0 577 645" fill="none" xmlns="http://www.w3.org/2000/svg">
<path d="M576.917 135.943C577.232 133.208 576.644 130.448 575.232 128.039C573.82 125.629 571.653 123.686 569.025 122.474L305.352 1.35913C303.675 0.58817 301.853 0.135141 299.99 0.0259175C298.127 -0.0833059 296.259 0.153406 294.494 0.722543C292.728 1.29168 291.099 2.1821 289.699 3.34295C288.3 4.5038 287.157 5.91235 286.337 7.48819L286.332 7.49749L187.438 197.659C185.787 200.844 185.548 204.514 186.772 207.865C187.996 211.216 190.584 213.973 193.969 215.534L457.642 336.649C461.031 338.2 464.937 338.425 468.502 337.274C472.067 336.124 475.002 333.691 476.662 330.511L575.556 140.349C576.279 138.966 576.739 137.475 576.917 135.943Z" fill="#F2F2F2"/>
<path d="M422.737 557H80.2628C75.9511 556.995 71.8174 555.389 68.7686 552.533C65.7198 549.677 64.0049 545.804 64 541.765V106.235C64.0049 102.196 65.7198 98.3232 68.7686 95.4671C71.8174 92.6111 75.9511 91.0045 80.2628 91H422.737C427.049 91.0045 431.183 92.6111 434.231 95.4671C437.28 98.3232 438.995 102.196 439 106.235V541.765C438.995 545.804 437.28 549.677 434.231 552.533C431.183 555.389 427.049 556.995 422.737 557Z" fill="white"/>
<path d="M171 221C183.15 221 193 211.598 193 200C193 188.402 183.15 179 171 179C158.85 179 149 188.402 149 200C149 211.598 158.85 221 171 221Z" fill="#E6E6E6"/>
<path d="M137 257.181C140.165 258.852 143.478 260.27 146.902 261.419L147.507 261.614C154.405 263.863 161.663 265.008 168.973 265C170.444 265 171.86 264.952 173.184 264.859C176.405 264.676 179.607 264.266 182.761 263.633C184.492 263.281 186.218 262.861 187.888 262.385C188.292 262.275 188.665 262.166 189.075 262.047C195.879 259.998 202.274 256.92 208 252.938C207.54 252.131 207.037 251.346 206.492 250.585C203.548 246.407 199.528 242.976 194.797 240.604C190.065 238.232 184.772 236.993 179.395 237H167.605C161.386 237.001 155.299 238.662 150.068 241.786C144.837 244.909 140.683 249.363 138.1 254.617C137.687 255.454 137.32 256.309 137 257.181Z" fill="#E6E6E6"/>
<path d="M178.233 263.436C177.433 263.478 176.662 263.673 176 264C179.364 263.849 182.707 263.515 186 263L178.233 263.436Z" fill="#FD8377"/>
<path d="M172.5 143C158.074 143.001 144.051 147.474 132.609 155.723C121.167 163.972 112.946 175.537 109.221 188.621C105.496 201.706 106.476 215.58 112.009 228.088C117.542 240.596 127.318 251.04 139.821 257.798C143.139 259.603 146.623 261.125 150.23 262.348L150.843 262.547C157.802 264.84 165.125 266.008 172.5 266C173.926 266 175.353 265.956 176.756 265.856C180.003 265.669 183.231 265.251 186.411 264.605C188.191 264.24 189.936 263.808 191.586 263.333C191.987 263.222 192.364 263.111 192.777 262.989C207.604 258.455 220.222 249.105 228.363 236.618C236.504 224.132 239.634 209.328 237.191 194.869C234.747 180.41 226.89 167.243 215.033 157.735C203.175 148.228 188.094 143.003 172.5 143ZM210.507 250.571C204.856 254.665 198.495 257.814 191.704 259.879C191.339 259.99 190.961 260.101 190.584 260.211C189.016 260.665 187.366 261.063 185.668 261.407C182.66 262.023 179.605 262.423 176.532 262.602C175.2 262.69 173.843 262.735 172.5 262.735C165.519 262.739 158.588 261.635 151.999 259.47L151.421 259.282C147.833 258.071 144.375 256.544 141.094 254.721C129.665 248.405 120.696 238.813 115.504 227.355C110.312 215.898 109.172 203.179 112.25 191.068C115.328 178.957 122.463 168.092 132.606 160.07C142.749 152.048 155.365 147.292 168.6 146.5C181.835 145.709 194.992 148.924 206.137 155.673C217.282 162.422 225.827 172.349 230.517 183.996C235.207 195.643 235.794 208.395 232.192 220.378C228.591 232.361 220.99 242.944 210.507 250.571Z" fill="#CCCCCC"/>
<path d="M422.737 557H80.2628C75.9511 556.995 71.8174 555.389 68.7686 552.533C65.7198 549.677 64.0049 545.804 64 541.765V106.235C64.0049 102.196 65.7198 98.3232 68.7686 95.4671C71.8174 92.6111 75.9511 91.0045 80.2628 91H422.737C427.049 91.0045 431.183 92.6111 434.231 95.4671C437.28 98.3232 438.995 102.196 439 106.235V541.765C438.995 545.804 437.28 549.677 434.231 552.533C431.183 555.389 427.049 556.995 422.737 557ZM80.2628 92.7923C76.4584 92.7963 72.811 94.2139 70.1209 96.7339C67.4308 99.254 65.9176 102.671 65.9133 106.235V541.765C65.9176 545.329 67.4308 548.746 70.1209 551.266C72.811 553.786 76.4584 555.204 80.2628 555.208H422.737C426.542 555.204 430.189 553.786 432.879 551.266C435.569 548.746 437.082 545.329 437.087 541.765V106.235C437.082 102.671 435.569 99.254 432.879 96.7339C430.189 94.2139 426.542 92.7963 422.737 92.7923L80.2628 92.7923Z" fill="#CCCCCC"/>
<path d="M356.35 204H259.65C257.621 204 255.675 203.263 254.241 201.95C252.806 200.637 252 198.857 252 197C252 195.143 252.806 193.363 254.241 192.05C255.675 190.737 257.621 190 259.65 190H356.35C358.379 190 360.325 190.737 361.759 192.05C363.194 193.363 364 195.143 364 197C364 198.857 363.194 200.637 361.759 201.95C360.325 203.263 358.379 204 356.35 204Z" fill="#E6E6E6"/>
<path d="M387.38 228H259.62C257.599 228 255.661 227.263 254.232 225.95C252.803 224.637 252 222.857 252 221C252 219.143 252.803 217.363 254.232 216.05C255.661 214.737 257.599 214 259.62 214H387.38C389.401 214 391.339 214.737 392.768 216.05C394.197 217.363 395 219.143 395 221C395 222.857 394.197 224.637 392.768 225.95C391.339 227.263 389.401 228 387.38 228Z" fill="#E6E6E6"/>
<path d="M356.324 321H114.676C112.64 321 110.688 320.263 109.248 318.95C107.809 317.637 107 315.857 107 314C107 312.143 107.809 310.363 109.248 309.05C110.688 307.737 112.64 307 114.676 307H356.324C358.36 307 360.312 307.737 361.752 309.05C363.191 310.363 364 312.143 364 314C364 315.857 363.191 317.637 361.752 318.95C360.312 320.263 358.36 321 356.324 321Z" fill="#E6E6E6"/>
<path d="M387.342 346H114.658C112.627 346 110.679 345.21 109.243 343.803C107.807 342.397 107 340.489 107 338.5C107 336.511 107.807 334.603 109.243 333.197C110.679 331.79 112.627 331 114.658 331H387.342C389.373 331 391.321 331.79 392.757 333.197C394.193 334.603 395 336.511 395 338.5C395 340.489 394.193 342.397 392.757 343.803C391.321 345.21 389.373 346 387.342 346Z" fill="#E6E6E6"/>
<path d="M383.492 414.039H178.251C176.522 414.039 174.864 413.352 173.641 412.129C172.418 410.907 171.731 409.248 171.731 407.519C171.731 405.79 172.418 404.132 173.641 402.909C174.864 401.687 176.522 401 178.251 401H383.492C385.221 401 386.879 401.687 388.102 402.909C389.325 404.132 390.011 405.79 390.011 407.519C390.011 409.248 389.325 410.907 388.102 412.129C386.879 413.352 385.221 414.039 383.492 414.039Z" fill="#E6E6E6"/>
<path d="M410.384 436.042H178.251C176.522 436.042 174.864 435.356 173.641 434.133C172.418 432.91 171.731 431.252 171.731 429.523C171.731 427.794 172.418 426.136 173.641 424.913C174.864 423.691 176.522 423.004 178.251 423.004H410.384C412.113 423.004 413.771 423.691 414.994 424.913C416.217 426.136 416.904 427.794 416.904 429.523C416.904 431.252 416.217 432.91 414.994 434.133C413.771 435.356 412.113 436.042 410.384 436.042Z" fill="#E6E6E6"/>
<path d="M383.492 486.613H178.251C176.522 486.613 174.864 485.926 173.641 484.703C172.418 483.481 171.731 481.823 171.731 480.094C171.731 478.364 172.418 476.706 173.641 475.484C174.864 474.261 176.522 473.574 178.251 473.574H383.492C385.221 473.574 386.879 474.261 388.102 475.484C389.325 476.706 390.011 478.364 390.011 480.094C390.011 481.823 389.325 483.481 388.102 484.703C386.879 485.926 385.221 486.613 383.492 486.613Z" fill="#E6E6E6"/>
<path d="M410.384 508.617H178.251C176.522 508.617 174.864 507.93 173.641 506.707C172.418 505.485 171.731 503.826 171.731 502.097C171.731 500.368 172.418 498.71 173.641 497.488C174.864 496.265 176.522 495.578 178.251 495.578H410.384C412.112 495.58 413.768 496.268 414.989 497.49C416.21 498.713 416.896 500.37 416.896 502.097C416.896 503.825 416.21 505.482 414.989 506.704C413.768 507.927 412.112 508.615 410.384 508.617Z" fill="#E6E6E6"/>
<path d="M564.917 260.541C565.232 257.814 564.644 255.062 563.232 252.66C561.82 250.257 559.653 248.32 557.025 247.112L293.352 126.355C291.675 125.586 289.853 125.135 287.99 125.026C286.127 124.917 284.259 125.153 282.494 125.72C280.728 126.288 279.099 127.176 277.699 128.333C276.3 129.49 275.157 130.895 274.337 132.466L274.332 132.475L175.438 322.074C173.787 325.25 173.548 328.909 174.772 332.25C175.996 335.591 178.584 338.34 181.969 339.896L445.642 460.653C449.031 462.2 452.937 462.424 456.502 461.277C460.067 460.129 463.002 457.704 464.662 454.533L563.556 264.934C564.279 263.555 564.739 262.068 564.917 260.541Z" fill="white"/>
<path d="M564.917 260.541C565.232 257.814 564.644 255.062 563.232 252.66C561.82 250.257 559.653 248.32 557.025 247.112L293.352 126.355C291.675 125.586 289.853 125.135 287.99 125.026C286.127 124.917 284.259 125.153 282.494 125.72C280.728 126.288 279.099 127.176 277.699 128.333C276.3 129.49 275.157 130.895 274.337 132.466L274.332 132.475L175.438 322.074C173.787 325.25 173.548 328.909 174.772 332.25C175.996 335.591 178.584 338.34 181.969 339.896L445.642 460.653C449.031 462.2 452.937 462.424 456.502 461.277C460.067 460.129 463.002 457.704 464.662 454.533L563.556 264.934C564.279 263.555 564.739 262.068 564.917 260.541ZM463.159 453.844C461.695 456.643 459.106 458.783 455.959 459.796C452.813 460.808 449.367 460.61 446.377 459.245L182.704 338.488C179.717 337.116 177.433 334.689 176.352 331.741C175.272 328.793 175.484 325.564 176.941 322.762L275.835 133.164C277.299 130.365 279.889 128.225 283.035 127.212C286.181 126.2 289.627 126.398 292.617 127.763L556.29 248.52C559.277 249.893 561.561 252.319 562.642 255.267C563.722 258.215 563.51 261.444 562.053 264.246L463.159 453.844Z" fill="#3F3D56"/>
<path d="M536.597 269.342L467.502 401.916C467.042 402.801 466.225 403.478 465.231 403.798C464.238 404.118 463.15 404.056 462.206 403.623L222.222 293.627C222.05 293.55 221.886 293.459 221.731 293.356C220.944 292.854 220.376 292.102 220.132 291.239C219.888 290.376 219.984 289.46 220.402 288.658L289.497 156.084C289.725 155.646 290.043 155.254 290.433 154.931C290.822 154.608 291.276 154.36 291.768 154.202C292.26 154.043 292.78 153.977 293.299 154.007C293.818 154.037 294.326 154.163 294.793 154.377L534.778 264.373C535.721 264.805 536.443 265.571 536.785 266.503C537.126 267.434 537.059 268.455 536.598 269.34L536.597 269.342Z" fill="#E6E6E6"/>
<path d="M326 262C345.33 262 361 247.449 361 229.5C361 211.551 345.33 197 326 197C306.67 197 291 211.551 291 229.5C291 247.449 306.67 262 326 262Z" fill="#E97FF7"/>
<path d="M377 365L223.551 294.754C223.358 294.668 223.173 294.566 223 294.449L357.015 209.929C357.841 209.399 358.802 209.083 359.8 209.014C360.799 208.946 361.799 209.126 362.698 209.538C363.598 209.95 364.365 210.578 364.92 211.358C365.476 212.138 365.8 213.042 365.861 213.979L373.335 315.29L373.696 320.139L377 365Z" fill="#3F3D56"/>
<path opacity="0.2" d="M377 365L324 340.876L368.489 317.524L371.692 315.842L373.293 315L373.657 319.877L377 365Z" fill="black"/>
<path d="M462 404L329 343.056L373.07 319.769L376.243 318.09L433.671 287.741C437.436 285.752 442.83 287.992 444.053 291.797C444.134 292.056 444.197 292.319 444.242 292.584L462 404Z" fill="#3F3D56"/>
<path d="M125.844 426.82L138.103 426.819L143.936 379.531L125.841 379.532L125.844 426.82Z" fill="#FFB8B8"/>
<path d="M122.717 422.817L146.861 422.816C148.881 422.816 150.883 423.214 152.75 423.987C154.617 424.761 156.313 425.894 157.742 427.323C159.17 428.752 160.304 430.448 161.077 432.314C161.85 434.181 162.248 436.182 162.248 438.203V438.703L122.718 438.704L122.717 422.817Z" fill="#FD8377"/>
<path d="M30.5508 419.013L43.2528 421.497L58.8808 373.687L40.1348 370.02L30.5508 419.013Z" fill="#FFB8B8"/>
<path d="M28.1229 414.234L53.1372 419.127L53.1382 419.128C55.2317 419.537 57.2239 420.355 59.0013 421.535C60.7786 422.714 62.3063 424.232 63.4969 426.002C64.6876 427.772 65.518 429.759 65.9407 431.85C66.3634 433.94 66.3701 436.094 65.9605 438.187L65.8592 438.705L24.9033 430.694L28.1229 414.234Z" fill="#FD8377"/>
<path d="M526.465 644.285H33C24.2509 644.275 15.863 640.795 9.67639 634.609C3.48983 628.422 0.00988299 620.034 0 611.285V340.285C0.00988299 331.536 3.48983 323.148 9.67639 316.962C15.863 310.775 24.2509 307.295 33 307.285H93.5027C101.712 307.278 109.628 310.338 115.698 315.865L181.309 362.716C185.587 366.625 191.173 368.79 196.968 368.785H529.529C533.903 368.785 538.233 369.655 542.268 371.344C546.304 373.032 549.963 375.506 553.033 378.622C556.103 381.737 558.524 385.432 560.153 389.492C561.783 393.551 562.589 397.894 562.525 402.268L559.461 611.768C559.299 620.424 555.756 628.673 549.589 634.75C543.422 640.827 535.122 644.25 526.465 644.285Z" fill="white"/>
<path d="M522.081 628.286H35.9194C31.6988 628.281 27.6524 626.602 24.668 623.618C21.6835 620.633 20.0048 616.587 20 612.366V336.935C20.0048 332.714 21.6835 328.668 24.668 325.684C27.6524 322.699 31.6988 321.02 35.9194 321.016C39.6525 321.02 43.2316 322.505 45.8713 325.144C48.511 327.784 49.9958 331.363 50 335.096V593.366C50.0045 597.322 51.5778 601.114 54.3748 603.911C57.1717 606.708 60.9639 608.281 64.9194 608.286H520.439C522.702 608.26 524.908 608.994 526.705 610.369C528.502 611.744 529.787 613.682 530.354 615.873C530.989 617.95 530.91 620.181 530.13 622.208C529.349 624.235 527.912 625.943 526.047 627.058C524.865 627.827 523.491 628.253 522.081 628.286Z" fill="#F2F2F2"/>
<path d="M283.424 496.012L282.144 494.732C281.879 494.484 281.724 494.14 281.712 493.777C281.7 493.414 281.833 493.061 282.081 492.796C282.101 492.774 282.123 492.753 282.144 492.732L293.374 481.492C293.497 481.361 293.645 481.255 293.809 481.181C293.973 481.106 294.15 481.065 294.33 481.059C294.509 481.053 294.689 481.083 294.857 481.146C295.025 481.21 295.18 481.306 295.311 481.429C295.333 481.449 295.354 481.47 295.374 481.492L306.604 492.722C306.736 492.849 306.841 493 306.914 493.168C306.986 493.335 307.026 493.515 307.029 493.698C307.032 493.88 306.999 494.062 306.932 494.231C306.865 494.401 306.766 494.556 306.639 494.688L306.604 494.722L305.324 496.002C305.198 496.133 305.046 496.239 304.879 496.311C304.711 496.384 304.531 496.423 304.349 496.427C304.166 496.43 303.985 496.397 303.815 496.33C303.645 496.263 303.49 496.163 303.359 496.037L303.324 496.002L296.684 489.002V505.612C296.686 505.793 296.651 505.973 296.583 506.141C296.515 506.309 296.415 506.462 296.287 506.591C296.16 506.72 296.009 506.823 295.842 506.893C295.675 506.964 295.496 507.001 295.315 507.002L295.304 507.002H293.454C293.086 507.002 292.732 506.856 292.472 506.595C292.211 506.334 292.064 505.981 292.064 505.612V489.022L285.424 496.022C285.167 496.286 284.815 496.437 284.447 496.442C284.078 496.446 283.723 496.304 283.459 496.047L283.424 496.012Z" fill="#E97FF7"/>
<path d="M294.354 471.281C298.862 471.281 303.268 472.618 307.016 475.122C310.764 477.626 313.685 481.186 315.41 485.35C317.135 489.514 317.586 494.097 316.707 498.517C315.827 502.938 313.657 506.999 310.469 510.186C307.282 513.373 303.221 515.544 298.801 516.423C294.38 517.303 289.797 516.851 285.633 515.126C281.469 513.402 277.909 510.48 275.405 506.733C272.901 502.985 271.564 498.579 271.564 494.071C271.57 488.029 273.973 482.235 278.245 477.962C282.518 473.689 288.312 471.287 294.354 471.281ZM294.354 468.281C289.254 468.281 284.267 469.794 280.026 472.628C275.785 475.461 272.48 479.489 270.528 484.202C268.576 488.914 268.065 494.1 269.06 499.103C270.055 504.105 272.511 508.701 276.118 512.307C279.725 515.914 284.32 518.371 289.323 519.366C294.326 520.361 299.511 519.85 304.224 517.898C308.936 515.946 312.964 512.641 315.798 508.399C318.632 504.158 320.144 499.172 320.144 494.071C320.144 487.231 317.427 480.672 312.591 475.835C307.754 470.998 301.194 468.281 294.354 468.281Z" fill="#3F3D56"/>
<path d="M526.465 644.285H33C24.2509 644.275 15.863 640.795 9.67639 634.609C3.48983 628.422 0.00988299 620.034 0 611.285V340.285C0.00988299 331.536 3.48983 323.148 9.67639 316.962C15.863 310.775 24.2509 307.295 33 307.285H93.5027C101.712 307.278 109.628 310.338 115.698 315.865L181.309 362.716C185.587 366.625 191.173 368.79 196.968 368.785H529.529C533.903 368.785 538.233 369.655 542.268 371.344C546.304 373.032 549.963 375.506 553.033 378.622C556.103 381.737 558.524 385.432 560.153 389.492C561.783 393.551 562.589 397.894 562.525 402.268L559.461 611.768C559.299 620.424 555.756 628.673 549.589 634.75C543.422 640.827 535.122 644.25 526.465 644.285ZM33 309.285C24.7812 309.295 16.9016 312.564 11.09 318.375C5.27841 324.187 2.00934 332.066 2 340.285V611.285C2.00934 619.504 5.27841 627.384 11.09 633.195C16.9016 639.007 24.7812 642.276 33 642.285H526.465C534.598 642.252 542.395 639.037 548.188 633.328C553.98 627.619 557.309 619.87 557.461 611.738L560.525 402.238C560.585 398.13 559.828 394.05 558.297 390.237C556.767 386.423 554.493 382.952 551.609 380.026C548.724 377.099 545.287 374.775 541.496 373.188C537.706 371.602 533.638 370.785 529.529 370.785H196.968C190.695 370.79 184.647 368.454 180.006 364.234L114.395 317.383C108.687 312.168 101.234 309.279 93.5027 309.285H33Z" fill="#3F3D56"/>
</svg>
